<svg width="200" height="30" viewBox="0 0 200 30" fill="none" xmlns="http://www.w3.org/2000/svg">
<path d="M3.33337 8.26195C3.33337 5.53997 5.53997 3.33337 8.26195 3.33337H21.4048C24.1268 3.33337 26.3334 5.53997 26.3334 8.26195V21.4048C26.3334 24.1268 24.1268 26.3334 21.4048 26.3334H8.26195C5.53997 26.3334 3.33337 24.1268 3.33337 21.4048V8.26195Z" fill="#5760E4"/>
<path fill-rule="none" clip-rule="evenodd" d="M9.56958 9.55578C10.2523 9.55578 10.8058 9.00231 10.8058 8.31958C10.8058 7.63684 10.2523 7.08337 9.56958 7.08337C8.88684 7.08337 8.33337 7.63684 8.33337 8.31958C8.33337 9.00231 8.88684 9.55578 9.56958 9.55578ZM13.9845 7.08337C13.3018 7.08337 12.7483 7.63684 12.7483 8.31958C12.7483 9.00231 13.3018 9.55578 13.9845 9.55578H18.5858L14.8276 18.6997L12.3477 12.6208C12.0898 11.9887 11.3683 11.6853 10.7361 11.9432C10.104 12.2011 9.80056 12.9226 10.0585 13.5548L13.6788 22.4289C13.8683 22.8936 14.32 23.1975 14.8218 23.1982C15.3236 23.1988 15.776 22.8961 15.9668 22.4319L21.5738 8.78952C21.7306 8.4082 21.6869 7.97385 21.4574 7.63137C21.2279 7.2889 20.8427 7.08337 20.4304 7.08337H13.9845Z" fill="white"/>
<path d="M141.587 11.3425C141.587 12.6851 142.721 13.1944 145.129 13.9583L145.172 13.9721C147.364 14.6873 150.084 15.5745 150.084 18.5185C150.084 21.3194 147.838 23.3333 144.782 23.3333C142.258 23.3333 140.128 21.574 139.595 19.2129C139.457 18.6111 139.92 18.0324 140.522 18.0324C140.985 18.0324 141.378 18.3333 141.471 18.7731C141.795 20.2778 143.161 21.412 144.782 21.412C146.449 21.412 148.163 20.5324 148.163 18.5185C148.163 17.1065 147.005 16.574 144.528 15.787L144.489 15.7747C142.342 15.0824 139.665 14.2191 139.665 11.3425C139.665 8.68051 141.818 6.66663 144.69 6.66663C147.028 6.66663 149.019 8.287 149.552 10.4861C149.714 11.0879 149.274 11.6898 148.625 11.6898C148.186 11.6898 147.815 11.3657 147.7 10.949C147.375 9.58329 146.148 8.58792 144.69 8.58792C142.86 8.58792 141.587 9.72218 141.587 11.3425Z" fill="#5760E4"/>
<path d="M40 7.84723C40 7.33797 40.4399 6.89815 40.9493 6.89815C41.4819 6.89815 41.9218 7.33797 41.9218 7.84723V22.1528C41.9218 22.662 41.4819 23.1019 40.9493 23.1019C40.4399 23.1019 40 22.662 40 22.1528V7.84723Z" fill="#5760E4"/>
<path d="M64.5226 11.1574C64.6847 10.9259 65.0088 10.7407 65.2867 10.7407C65.9813 10.7639 66.398 11.5509 65.9813 12.1296L61.4431 18.5185C61.0958 19.0278 60.3548 19.0278 60.0075 18.5185L53.918 9.93056V22.1528C53.918 22.662 53.4781 23.1019 52.9456 23.1019C52.4362 23.1019 51.9963 22.662 51.9963 22.1528V7.84723C51.9963 7.33797 52.4362 6.89815 52.9456 6.89815H53.4087C53.7328 6.89815 54.0107 7.06019 54.1959 7.29167L60.7253 16.5046L64.5226 11.1574Z" fill="#5760E4"/>
<path d="M67.5326 7.84723C67.5326 7.33797 67.9725 6.89815 68.5051 6.89815C69.0145 6.89815 69.4544 7.33797 69.4544 7.84723V22.1528C69.4544 22.662 69.0145 23.1019 68.5051 23.1019C67.9725 23.1019 67.5326 22.662 67.5326 22.1528V7.84723Z" fill="#5760E4"/>
<path d="M91.4688 6.89815H84.43C83.8975 6.89815 83.4575 7.31482 83.4575 7.84723C83.4575 8.37964 83.8975 8.81945 84.43 8.81945H89.9175L85.5875 19.375L85.2867 20.0695L85.0088 19.375L80.1465 7.52315C79.9844 7.12963 79.6371 6.89815 79.2203 6.89815C78.5257 6.89815 78.0395 7.61575 78.2942 8.26389L84.1292 22.4769C84.2908 22.8473 84.6383 23.1019 85.055 23.1019H85.5413C85.935 23.1019 86.3054 22.8473 86.4675 22.4769L92.2792 8.26389C92.5571 7.63889 92.1171 6.9676 91.4688 6.89815Z" fill="#5760E4"/>
<path d="M109.74 8.81945H101.497C100.987 8.81945 100.547 8.37964 100.547 7.84723C100.547 7.33797 100.987 6.89815 101.497 6.89815H109.74C110.272 6.89815 110.712 7.33797 110.712 7.84723C110.712 8.37964 110.272 8.81945 109.74 8.81945Z" fill="#5760E4"/>
<path d="M102.47 21.1806H109.74C110.272 21.1806 110.712 21.6204 110.712 22.1528C110.712 22.662 110.272 23.1019 109.74 23.1019H101.497C100.987 23.1019 100.547 22.662 100.547 22.1528V14.6991C100.547 14.1667 100.987 13.7269 101.497 13.7269H108.49C109.022 13.7269 109.462 14.1667 109.462 14.6991C109.462 15.2315 109.022 15.6482 108.49 15.6482H102.47V21.1806Z" fill="#5760E4"/>
<path d="M130.815 11.6667C130.815 9.05093 128.662 6.89815 126.022 6.89815H120.234C119.725 6.89815 119.285 7.33797 119.285 7.84723C119.285 8.37964 119.725 8.81945 120.234 8.81945H126.022C127.597 8.81945 128.893 10.0926 128.893 11.6667C128.893 13.2407 127.597 14.537 126.022 14.537H120.234C119.725 14.537 119.308 14.9305 119.285 15.4398V22.1528C119.285 22.662 119.725 23.1019 120.234 23.1019C120.766 23.1019 121.206 22.662 121.206 22.1528V16.4583H126.022C128.662 16.4583 130.815 14.3056 130.815 11.6667Z" fill="#5760E4"/>
<path d="M128.245 18.287C128.083 17.9861 127.782 17.8241 127.458 17.8241C126.717 17.8241 126.277 18.6111 126.648 19.213L128.662 22.6389C128.824 22.9167 129.125 23.1019 129.449 23.1019C130.19 23.1019 130.63 22.3148 130.26 21.6898L128.245 18.287Z" fill="#5760E4"/>
<path d="M159.866 8.81945H168.109C168.641 8.81945 169.081 8.37964 169.081 7.84723C169.081 7.33797 168.641 6.89815 168.109 6.89815H159.866C159.356 6.89815 158.916 7.33797 158.916 7.84723C158.916 8.37964 159.356 8.81945 159.866 8.81945Z" fill="#5760E4"/>
<path d="M168.109 21.1806H160.838V15.6482H166.858C167.391 15.6482 167.831 15.2315 167.831 14.6991C167.831 14.1667 167.391 13.7269 166.858 13.7269H159.866C159.356 13.7269 158.916 14.1667 158.916 14.6991V22.1528C158.916 22.662 159.356 23.1019 159.866 23.1019H168.109C168.641 23.1019 169.081 22.662 169.081 22.1528C169.081 21.6204 168.641 21.1806 168.109 21.1806Z" fill="#5760E4"/>
<path d="M178.047 7.84723C178.047 7.33797 178.487 6.89815 178.996 6.89815C179.528 6.89815 179.968 7.33797 179.968 7.84723V22.1528C179.968 22.662 179.528 23.1019 178.996 23.1019C178.487 23.1019 178.047 22.662 178.047 22.1528V7.84723Z" fill="#5760E4"/>
<path d="M182.608 6.89815H183.187C187.517 6.89815 191.036 10.5324 191.036 15C191.036 19.4676 187.517 23.1019 183.187 23.1019H182.608C182.075 23.1019 181.635 22.662 181.635 22.1528C181.635 21.6204 182.075 21.1806 182.608 21.1806H183.187C186.452 21.1806 189.114 18.4028 189.114 15C189.114 11.5972 186.452 8.81945 183.187 8.81945H182.608C182.075 8.81945 181.635 8.37964 181.635 7.84723C181.635 7.33797 182.075 6.89815 182.608 6.89815Z" fill="#5760E4"/>
</svg>
