<svg width="152" height="18" viewBox="0 0 152 18" fill="none" xmlns="http://www.w3.org/2000/svg">
<path d="M101.587 5.34254C101.587 6.68513 102.721 7.19442 105.129 7.95829L105.172 7.97213C107.364 8.68725 110.084 9.57452 110.084 12.5185C110.084 15.3194 107.838 17.3333 104.782 17.3333C102.258 17.3333 100.128 15.574 99.5955 13.2129C99.4567 12.6111 99.9196 12.0324 100.522 12.0324C100.985 12.0324 101.378 12.3333 101.471 12.7731C101.795 14.2778 103.161 15.412 104.782 15.412C106.449 15.412 108.163 14.5324 108.163 12.5185C108.163 11.1065 107.005 10.574 104.528 9.787L104.489 9.77472C102.342 9.08239 99.6651 8.21905 99.6651 5.34254C99.6651 2.68051 101.818 0.666626 104.69 0.666626C107.028 0.666626 109.019 2.287 109.552 4.48607C109.714 5.08792 109.274 5.68979 108.625 5.68979C108.186 5.68979 107.815 5.36571 107.7 4.94904C107.375 3.58329 106.148 2.58792 104.69 2.58792C102.86 2.58792 101.587 3.72218 101.587 5.34254Z" fill="#5760E4"/>
<path d="M0 1.84723C0 1.33797 0.439921 0.898153 0.949308 0.898153C1.48185 0.898153 1.92178 1.33797 1.92178 1.84723V16.1528C1.92178 16.662 1.48185 17.1019 0.949308 17.1019C0.439921 17.1019 0 16.662 0 16.1528V1.84723Z" fill="#5760E4"/>
<path d="M24.5226 5.15742C24.6847 4.92592 25.0088 4.74075 25.2867 4.74075C25.9813 4.7639 26.398 5.55092 25.9813 6.12962L21.4431 12.5185C21.0958 13.0278 20.3548 13.0278 20.0075 12.5185L13.918 3.93056V16.1528C13.918 16.662 13.4781 17.1019 12.9456 17.1019C12.4362 17.1019 11.9963 16.662 11.9963 16.1528V1.84723C11.9963 1.33797 12.4362 0.898153 12.9456 0.898153H13.4087C13.7328 0.898153 14.0107 1.06019 14.1959 1.29167L20.7253 10.5046L24.5226 5.15742Z" fill="#5760E4"/>
<path d="M27.5326 1.84723C27.5326 1.33797 27.9725 0.898153 28.5051 0.898153C29.0145 0.898153 29.4544 1.33797 29.4544 1.84723V16.1528C29.4544 16.662 29.0145 17.1019 28.5051 17.1019C27.9725 17.1019 27.5326 16.662 27.5326 16.1528V1.84723Z" fill="#5760E4"/>
<path d="M51.4687 0.898153H44.43C43.8975 0.898153 43.4575 1.31482 43.4575 1.84723C43.4575 2.37964 43.8975 2.81945 44.43 2.81945H49.9175L45.5875 13.375L45.2867 14.0695L45.0088 13.375L40.1465 1.52315C39.9844 1.12963 39.6371 0.898153 39.2203 0.898153C38.5257 0.898153 38.0395 1.61575 38.2942 2.26389L44.1292 16.4769C44.2908 16.8473 44.6383 17.1019 45.055 17.1019H45.5413C45.935 17.1019 46.3054 16.8473 46.4675 16.4769L52.2792 2.26389C52.5571 1.63889 52.1171 0.967597 51.4687 0.898153Z" fill="#5760E4"/>
<path d="M69.74 2.81945H61.4971C60.9875 2.81945 60.5475 2.37964 60.5475 1.84723C60.5475 1.33797 60.9875 0.898153 61.4971 0.898153H69.74C70.2725 0.898153 70.7125 1.33797 70.7125 1.84723C70.7125 2.37964 70.2725 2.81945 69.74 2.81945Z" fill="#5760E4"/>
<path d="M62.4696 15.1806H69.74C70.2725 15.1806 70.7125 15.6204 70.7125 16.1528C70.7125 16.662 70.2725 17.1019 69.74 17.1019H61.4971C60.9875 17.1019 60.5475 16.662 60.5475 16.1528V8.69908C60.5475 8.16667 60.9875 7.72688 61.4971 7.72688H68.4896C69.0221 7.72688 69.4621 8.16667 69.4621 8.69908C69.4621 9.2315 69.0221 9.64817 68.4896 9.64817H62.4696V15.1806Z" fill="#5760E4"/>
<path d="M90.8151 5.66667C90.8151 3.05093 88.6618 0.898153 86.0222 0.898153H80.2338C79.7247 0.898153 79.2847 1.33797 79.2847 1.84723C79.2847 2.37964 79.7247 2.81945 80.2338 2.81945H86.0222C87.5968 2.81945 88.8934 4.0926 88.8934 5.66667C88.8934 7.24075 87.5968 8.53704 86.0222 8.53704H80.2338C79.7247 8.53704 79.3076 8.93054 79.2847 9.43983V16.1528C79.2847 16.662 79.7247 17.1019 80.2338 17.1019C80.7663 17.1019 81.2063 16.662 81.2063 16.1528V10.4583H86.0222C88.6618 10.4583 90.8151 8.30558 90.8151 5.66667Z" fill="#5760E4"/>
<path d="M88.2451 12.287C88.083 11.9861 87.7822 11.8241 87.458 11.8241C86.7172 11.8241 86.2772 12.6111 86.6476 13.213L88.6618 16.6389C88.8238 16.9167 89.1251 17.1019 89.4493 17.1019C90.1901 17.1019 90.6301 16.3148 90.2597 15.6898L88.2451 12.287Z" fill="#5760E4"/>
<path d="M119.866 2.81945H128.109C128.641 2.81945 129.081 2.37964 129.081 1.84723C129.081 1.33797 128.641 0.898153 128.109 0.898153H119.866C119.356 0.898153 118.916 1.33797 118.916 1.84723C118.916 2.37964 119.356 2.81945 119.866 2.81945Z" fill="#5760E4"/>
<path d="M128.109 15.1806H120.838V9.64817H126.858C127.391 9.64817 127.831 9.2315 127.831 8.69908C127.831 8.16667 127.391 7.72688 126.858 7.72688H119.866C119.356 7.72688 118.916 8.16667 118.916 8.69908V16.1528C118.916 16.662 119.356 17.1019 119.866 17.1019H128.109C128.641 17.1019 129.081 16.662 129.081 16.1528C129.081 15.6204 128.641 15.1806 128.109 15.1806Z" fill="#5760E4"/>
<path d="M138.047 1.84723C138.047 1.33797 138.487 0.898153 138.996 0.898153C139.528 0.898153 139.968 1.33797 139.968 1.84723V16.1528C139.968 16.662 139.528 17.1019 138.996 17.1019C138.487 17.1019 138.047 16.662 138.047 16.1528V1.84723Z" fill="#5760E4"/>
<path d="M142.608 0.898153H143.187C147.517 0.898153 151.036 4.53241 151.036 9C151.036 13.4676 147.517 17.1019 143.187 17.1019H142.608C142.075 17.1019 141.635 16.662 141.635 16.1528C141.635 15.6204 142.075 15.1806 142.608 15.1806H143.187C146.452 15.1806 149.114 12.4028 149.114 9C149.114 5.59725 146.452 2.81945 143.187 2.81945H142.608C142.075 2.81945 141.635 2.37964 141.635 1.84723C141.635 1.33797 142.075 0.898153 142.608 0.898153Z" fill="#5760E4"/>
</svg>
